/* XPM */
static char *result[] = {
/* columns rows colors chars-per-pixel */
"16 16 7 1 ",
"  c #181425",
". c #262B44",
"X c #B86F50",
"o c #E4A672",
"O c #0095E9",
"+ c white",
"@ c None",
/* pixels */
"@@@@@@@@@@@@@@@@",
"@@@@@......@@@@@",
"@@@@........@@@@",
"@@@@ ...... @@@@",
"@@@@  ....  @@@@",
"@@@@ o    o @@@@",
"@@@@ oooooo @@@@",
"@@@@ o oo o @@@@",
"@@@@oooooooo@@@@",
"@@@@@oooooXo@@@@",
"@@@@o+++++Xo@@@@",
"@@@o oOOOO.@@@@@",
"@@@o . .. ..@@@@",
"@@@@ .......@@@@",
"@@@@ ......@@@@@",
"@@@@.@@@@@@@@@@@"
};
