/* XPM */
static char *result[] = {
/* columns rows colors chars-per-pixel */
"16 16 9 1 ",
"  c #141B1B",
". c #2E3939",
"X c #D14B34",
"o c #965340",
"O c #EF914F",
"+ c #548789",
"@ c #D3A2C0",
"# c #E3F1F5",
"$ c None",
/* pixels */
"$$$$$$$$$$$$$$$$",
"$$$$$$   $     $",
"$$$   ooo XXXX $",
"$$ oXXXXXXXXXX $",
"$ oXXXXXXXXXX $$",
"$ ooXXXXXXoooo $",
"$ oooXXXooXXXo $",
"$ ooooooooOOOO $",
"$ ooooXXoO#  O $",
"$ ooooXXoOOOOO $",
"$ oooooXOOOO   $",
"$$ XXXXXXOOOOO $",
"$$$ ######X   $$",
"$$$ . OO ## $$$$",
"$$$ + OO ++ $$$$",
"$$$$ +   + $$$$$"
};
